PathFileType	4	(X/Y/Z)	Kaydara	
DataRate	CameraRate	NumFrames	NumMarkers	Units	OrigDataRate	OrigDataStartFrame	OrigNumFrames	
60.00	60.00	4	74	mm	60.00	788	195	
Frame#	Time	Y_rasi			Y_rpsi			Y_lpsi			Y_fneck			Y_bneck			Y_fhead			Y_rhead			Y_rshld			Y_relbtop			Y_relbext			Y_relblow			Y_rwrext			Y_rwrtop			Y_rwrlow			Y_lshld			Y_lelbext			Y_lelblow			Y_lelbtop			Y_lwrext			Y_lwrtop			Y_lwrlow			Y_rtopleg			Y_ltopleg			Y_rkneefr			Y_rkneebk			Y_rkneeis			Y_lkneefr			Y_lknssbk			Y_lkneeis			Y_rankfr			Y_rankis			Y_rankbk			Y_lankfr			Y_lankbk			Y_lankis			Y_lhead			Y_lasi			D_rpsi			D_lpsi			D_fneck			D_bneck			D_fhead			D_rhead			D_lhead			D_rshld			D_relbtop			D_relbext			D_relblow			D_rwrext			D_rwrtop			D_rwrlow			D_lshld			D_lelbext			D_lelblow			D_lelbtop			D_lwrext			D_lwrtop			D_lwrlow			D_rtopleg			D_ltopleg			D_rkneefr			D_rkneebk			D_rkneeis			D_lkneefr			D_lknssbk			D_lkneeis			D_rankfr			D_rankis			D_rankbk			D_lankfr			D_lankbk			D_lankis			D_lasi			D_rasi			
		X1	Y1	Z1	X2	Y2	Z2	X3	Y3	Z3	X4	Y4	Z4	X5	Y5	Z5	X6	Y6	Z6	X7	Y7	Z7	X8	Y8	Z8	X9	Y9	Z9	X10	Y10	Z10	X11	Y11	Z11	X12	Y12	Z12	X13	Y13	Z13	X14	Y14	Z14	X15	Y15	Z15	X16	Y16	Z16	X17	Y17	Z17	X18	Y18	Z18	X19	Y19	Z19	X20	Y20	Z20	X21	Y21	Z21	X22	Y22	Z22	X23	Y23	Z23	X24	Y24	Z24	X25	Y25	Z25	X26	Y26	Z26	X27	Y27	Z27	X28	Y28	Z28	X29	Y29	Z29	X30	Y30	Z30	X31	Y31	Z31	X32	Y32	Z32	X33	Y33	Z33	X34	Y34	Z34	X35	Y35	Z35	X36	Y36	Z36	X37	Y37	Z37	X38	Y38	Z38	X39	Y39	Z39	X40	Y40	Z40	X41	Y41	Z41	X42	Y42	Z42	X43	Y43	Z43	X44	Y44	Z44	X45	Y45	Z45	X46	Y46	Z46	X47	Y47	Z47	X48	Y48	Z48	X49	Y49	Z49	X50	Y50	Z50	X51	Y51	Z51	X52	Y52	Z52	X53	Y53	Z53	X54	Y54	Z54	X55	Y55	Z55	X56	Y56	Z56	X57	Y57	Z57	X58	Y58	Z58	X59	Y59	Z59	X60	Y60	Z60	X61	Y61	Z61	X62	Y62	Z62	X63	Y63	Z63	X64	Y64	Z64	X65	Y65	Z65	X66	Y66	Z66	X67	Y67	Z67	X68	Y68	Z68	X69	Y69	Z69	X70	Y70	Z70	X71	Y71	Z71	X72	Y72	Z72	X73	Y73	Z73	X74	Y74	Z74	

122	13.117	-546.01555	1088.29369	-169.75567	-471.58463	1071.73782	-334.91280	-292.50805	1053.88992	-181.11300	-462.80640	1421.86157	-164.86343	-356.52493	1486.18713	-157.98712	-564.18297	1591.88751	-214.93435	-388.12637	1570.12268	-226.52321	-522.38556	1421.46576	-319.70209	-557.14478	1107.32986	-372.18716	-539.39190	1125.55603	-425.74463	-479.40956	1101.28891	-397.89314	-609.83002	850.30006	-394.13826	-647.79778	866.90598	-385.94353	-646.40060	876.74301	-342.40768	-276.93554	1370.02182	-4.83516	-190.30592	1062.66464	-44.19288	-226.53307	1054.56131	-90.97854	-251.72073	1064.55154	-8.67597	-247.01986	806.20567	-36.47134	-249.47311	812.06772	0.70139	-304.14841	824.54605	1.43971	-572.26368	916.00662	-318.74704	-303.93963	899.45259	-75.35555	-636.64673	413.26405	-277.90670	-604.05540	454.74663	-350.34298	-543.48377	414.92157	-256.58401	-347.47871	473.47099	-95.82344	-272.34268	496.74751	-176.72464	-393.89248	469.97047	-179.89967	-631.28410	141.93507	-329.57989	-560.50865	132.97246	-338.73447	-599.56848	137.43924	-394.49444	-281.98465	132.71605	-162.45836	-257.82003	131.90857	-232.75127	-332.68475	126.95117	-205.46682	-444.76593	1562.74902	-84.70334	-432.39403	1068.86063	-59.45045	-922.13585	1174.55261	594.88262	-1075.26260	1188.91312	500.99415	-908.74138	1615.17426	467.53368	-994.23668	1656.00876	551.45123	-886.19698	1813.24707	354.69269	-907.16354	1805.73364	532.70100	-1034.37271	1799.57062	447.36015	-803.03513	1563.73230	595.00477	-777.97440	1193.78578	563.34332	-722.25571	1204.38805	599.53857	-783.50983	1187.38121	647.64763	-693.02361	921.21513	514.19655	-677.54517	938.60367	478.43491	-716.31569	949.22035	451.49422	-1149.60373	1559.41986	430.12951	-1162.31262	1188.58032	362.62791	-1125.84389	1167.47704	428.85155	-1099.83315	1196.99722	352.88891	-1106.00952	944.46060	309.09348	-1087.59949	964.36798	272.92267	-1044.96521	965.51651	295.05686	-814.08485	1036.81412	580.26634	-1100.76721	1033.58276	380.79262	-823.18771	556.39008	485.05821	-829.46266	561.02528	598.60603	-933.18909	548.44109	527.07764	-1005.60921	470.60982	378.20461	-1094.29092	518.89263	431.05675	-1005.36942	501.90994	491.37283	-832.69142	192.93732	553.11989	-908.99109	187.20154	538.32924	-881.99554	184.16422	619.37702	-1055.90775	162.95095	413.63945	-1074.76639	154.73795	490.89287	-992.01172	164.68510	447.97829	-992.61948	1193.81569	356.98631	-817.93976	1181.43188	461.37245 
123	13.133	-544.20856	1088.21716	-170.33020	-466.81477	1071.72752	-334.96193	-290.67493	1053.48839	-178.03066	-461.16302	1421.43173	-164.10635	-355.08881	1485.97641	-155.14309	-561.80923	1591.12671	-216.01894	-385.38296	1569.80682	-224.71113	-517.69920	1420.99594	-320.14927	-551.41026	1106.79237	-373.95832	-532.48219	1125.32356	-427.01473	-473.02486	1101.14342	-397.75955	-601.11130	849.03534	-399.80309	-639.56287	865.00885	-392.45232	-639.22344	874.44962	-348.73528	-278.43988	1369.89944	-0.41618	-192.83127	1061.77353	-36.35654	-227.98307	1053.70667	-83.88083	-254.67304	1064.18526	-2.08046	-255.29640	805.12375	-25.17874	-255.48985	812.21191	9.12358	-309.76574	825.37018	8.42532	-568.78967	915.81306	-319.46960	-303.69209	899.13109	-72.82141	-635.75928	413.49194	-277.94632	-602.42184	454.79012	-350.28484	-542.57832	414.86565	-256.05206	-348.49979	473.73268	-94.80897	-271.63929	496.79684	-175.38145	-393.37612	470.26157	-179.85035	-631.24298	142.16667	-329.58153	-560.47497	132.84979	-338.40443	-599.07272	137.54865	-394.40453	-281.70414	132.46710	-162.27600	-257.48005	131.88256	-232.50086	-332.43687	126.94818	-205.40840	-444.66576	1562.56912	-83.55982	-432.24564	1068.44208	-58.46482	-922.00890	1174.50470	595.07793	-1075.95406	1188.70209	501.40347	-908.65097	1614.98291	467.70016	-994.19434	1656.03775	551.44245	-885.70435	1812.63138	354.60178	-907.04170	1805.89035	532.58514	-1034.08417	1799.60526	447.02255	-802.97333	1563.75351	595.32707	-778.07213	1193.77556	563.52177	-722.44377	1204.31992	599.87537	-783.73199	1187.35809	647.86385	-693.42041	921.13190	514.58401	-677.81616	938.56026	478.78235	-716.49338	949.24843	451.79478	-1149.41490	1559.33060	430.05192	-1161.96945	1188.46695	362.43912	-1125.71014	1167.43729	428.82442	-1099.41566	1196.96175	352.66472	-1105.44678	944.41605	308.88199	-1086.99203	964.35806	272.76850	-1044.67178	965.44655	294.94648	-813.98438	1036.72729	580.32272	-1100.35339	1033.55156	380.65674	-822.92587	556.31027	485.03170	-829.39293	560.95879	598.66375	-932.96791	548.41347	527.01820	-1005.26695	470.60524	377.87346	-1093.95828	518.86150	430.67394	-1005.14107	501.90441	491.19255	-832.64359	192.89139	553.07297	-908.92395	187.21464	538.30299	-881.95000	184.15401	619.34109	-1055.79247	162.96862	413.61462	-1074.47815	154.76435	490.77484	-991.90643	164.60718	448.00205	-992.15172	1193.84926	356.98540	-817.85622	1181.52916	461.58463 
124	13.150	-542.80022	1088.26660	-170.93597	-464.31835	1071.56891	-333.33683	-288.96332	1053.13187	-174.87696	-459.43378	1421.01044	-163.28604	-353.66627	1485.67917	-152.45228	-559.39137	1590.42526	-217.01477	-382.69081	1569.39835	-222.96915	-513.05431	1420.57266	-320.48504	-545.34588	1106.27586	-375.72495	-525.46936	1125.11818	-428.22559	-466.66111	1100.93903	-397.42878	-591.92413	847.75291	-405.18932	-630.67211	863.26866	-398.64044	-631.72165	872.22694	-354.94156	-279.65057	1369.78729	3.88328	-195.28631	1061.01181	-28.87614	-229.68483	1052.76138	-76.86295	-257.71608	1063.83850	4.29717	-259.24128	805.25970	-18.07104	-261.96619	812.28142	17.56076	-315.45504	826.00822	15.57647	-565.18501	915.75981	-319.91615	-303.07508	898.87871	-70.54800	-634.78123	413.75568	-278.01712	-600.92155	454.75319	-350.15362	-542.01378	414.68842	-255.34063	-348.84247	473.74344	-94.25841	-270.88642	496.75518	-174.05878	-392.57690	470.41420	-179.70758	-630.93246	142.26790	-329.49581	-560.06256	132.86201	-338.28407	-598.62003	137.65213	-394.29260	-281.42181	132.34685	-162.15748	-257.14869	131.84197	-232.13186	-332.23572	127.01632	-205.34946	-444.59114	1562.33078	-82.46690	-432.08767	1068.16986	-56.89778	-921.92703	1174.46991	595.24738	-1076.60103	1188.37646	501.84765	-908.60580	1614.84161	467.93240	-994.19701	1656.03958	551.43726	-885.36308	1811.99142	354.39537	-907.32193	1806.01456	532.23171	-1033.82248	1799.59732	446.58390	-802.98279	1563.76083	595.74055	-778.26225	1193.79517	563.87814	-722.61749	1204.27559	600.23499	-784.05014	1187.37640	648.26355	-694.04114	921.22978	515.10509	-678.08762	938.53127	479.25598	-716.79512	949.25072	452.21817	-1149.17526	1559.19769	429.90120	-1161.52077	1188.32092	362.18273	-1125.40009	1167.23625	428.56709	-1099.03282	1196.85944	352.33860	-1104.94064	944.35516	308.59116	-1086.35384	964.30298	272.48798	-1043.96500	965.67184	293.99729	-813.44727	1036.66389	581.57589	-1099.89532	1033.48938	380.44567	-822.66762	556.28838	484.93813	-829.13971	560.87795	598.60165	-932.65808	548.34171	526.86790	-1004.91859	470.59246	377.53426	-1093.63503	518.79330	430.31193	-1004.61502	501.31393	490.32883	-832.58018	192.82766	553.02540	-908.98636	187.16084	538.41972	-881.85768	184.14724	619.28226	-1055.63782	162.94596	413.56140	-1074.63844	154.82751	490.76847	-991.80092	164.57838	447.91889	-991.77414	1193.62862	357.02885	-817.50465	1181.52351	461.88267 
125	13.167	-540.73078	1088.04276	-171.31039	-460.00637	1071.63475	-332.98538	-287.18420	1052.77367	-171.91450	-457.45842	1420.64682	-162.45710	-352.09408	1485.41473	-149.88031	-556.98994	1589.56924	-217.72392	-380.10342	1569.06326	-221.27369	-508.42659	1420.06653	-320.71644	-539.30389	1105.67520	-377.34840	-518.15086	1124.78958	-429.36848	-460.15514	1100.77042	-397.02888	-582.52892	846.45523	-410.07881	-621.52290	861.52664	-404.57668	-623.82896	870.05020	-360.70763	-283.18949	1370.48981	7.50875	-198.08174	1060.25673	-21.44006	-231.52256	1051.91971	-70.01730	-260.99726	1063.54675	10.56652	-265.46469	804.99229	-9.23902	-268.50018	812.57324	25.86065	-321.31901	826.83517	22.58024	-561.77147	915.09689	-321.70502	-303.01489	898.53477	-67.79527	-633.75328	414.03641	-278.01174	-599.28871	454.82750	-350.01698	-541.06953	414.53892	-254.85291	-348.72616	473.52592	-93.85733	-270.03092	496.71623	-172.68335	-391.69327	470.60722	-179.59797	-630.73040	142.52416	-329.43672	-559.89693	132.75264	-337.93705	-598.19763	137.69827	-394.17290	-280.92773	132.12503	-162.29235	-256.91029	131.80733	-231.74175	-332.10880	127.11637	-205.31757	-444.28375	1562.31827	-81.13340	-431.66954	1067.70897	-56.31852	-921.94321	1174.43459	595.40546	-1077.26212	1188.17909	502.30953	-907.98607	1614.78348	469.36714	-994.24118	1656.06415	551.43688	-884.96162	1811.30112	354.21959	-906.92886	1806.26373	532.09553	-1033.65189	1799.56497	446.14700	-803.10928	1563.80768	596.24195	-778.51189	1193.75816	564.45930	-722.88651	1204.27658	600.84953	-784.41292	1187.35924	648.84460	-694.40620	921.18263	515.59662	-678.41202	938.46733	479.75143	-717.18040	949.20349	452.70771	-1148.89793	1559.02679	429.69170	-1161.10741	1188.19763	361.87973	-1124.92455	1167.05124	428.13515	-1098.66882	1196.75133	352.25624	-1104.35936	944.27162	308.27763	-1085.65308	964.18594	272.22931	-1043.37425	965.52513	293.89698	-813.23586	1036.63193	582.21191	-1099.44176	1033.44772	380.24212	-822.34550	556.27502	484.88235	-828.76465	560.83099	598.41118	-932.32407	548.30719	526.68373	-1004.50760	470.47153	377.38281	-1093.24707	518.79662	429.96880	-1005.30807	502.23503	491.01173	-832.50717	192.80724	552.97615	-908.96446	187.12158	538.47210	-881.71936	184.15545	619.24694	-1055.52200	162.91300	413.48743	-1074.52332	154.85445	490.66811	-991.72935	164.51258	447.85706	-991.25259	1193.79982	357.15538	-817.24075	1181.51138	462.16240 
